<!DOCTYPE svg PUBLIC "-//W3C//DTD SVG 1.1//EN" "http://www.w3.org/Graphics/SVG/1.1/DTD/svg11.dtd">
<!-- Uploaded to: SVG Repo, www.svgrepo.com, Transformed by: SVG Repo Mixer Tools -->
<svg width="800px" height="800px" viewBox="0 0 1024 1024" fill="#000000" class="icon" version="1.1" xmlns="http://www.w3.org/2000/svg">
<g id="SVGRepo_bgCarrier" stroke-width="0"/>
<g id="SVGRepo_tracerCarrier" stroke-linecap="round" stroke-linejoin="round"/>
<g id="SVGRepo_iconCarrier">
<path d="M908.008473 139.713707L529.299213 3.059374a51.005609 51.005609 0 0 0-17.397182-3.059374c-5.950311 0-11.855934 1.03125-17.534682 3.090312L117.015902 139.744645c-20.394681 7.397498-34.704989 26.774679-34.70499 48.472173v323.781463c0 72.287165 23.299368 144.584643 67.763417 214.87806 34.082802 53.875921 81.520288 106.71028 140.256832 157.045577 98.209345 84.156849 195.655565 132.70121 199.749627 134.725896a51.957797 51.957797 0 0 0 22.96593 5.352186c7.717185 0 15.485933-1.732499 22.608431-5.197498 4.094061-1.993749 101.495594-49.78186 199.797752-133.605272 58.794982-50.132485 105.520905-102.966844 139.627769-157.031827 44.446861-70.444666 66.601542-143.171831 66.601543-216.167122V188.216818c0.003437-21.731868-13.230933-41.133112-33.67374-48.503111zM164.810887 511.757656V226.768368c0-10.848747 6.648123-20.539056 16.847183-24.237805l320.759902-116.692777c2.859999-1.034687 6.142811-1.797812 9.580309-1.797812v427.961745h349.631456c0.020625 0 0.044687 0.464062 0.044688 0.759687-0.06875 93.255909-47.038736 185.679943-139.58652 275.670228-72.273415 70.279666-154.384953 120.436213-196.621503 144.096519-3.915311 2.196562-10.027184 3.231249-13.464683 3.231249V511.867656l-347.190832-0.11z"/>
</g>
</svg>